<svg width="117" height="32" viewBox="0 0 117 32" fill="none" xmlns="http://www.w3.org/2000/svg">
<path d="M20.216 15.784C20.152 16.04 20.088 16.392 20.024 16.84L1.16 14.824H20.36L20.216 15.784ZM19.688 19.432C19.592 20.168 19.544 20.84 19.544 21.448L0.632 19.432H19.688ZM21.512 10.216L20.936 12.184L2.312 10.216H21.512ZM19.592 24.04C19.72 24.936 19.832 25.608 19.928 26.056L1.256 24.04H19.592ZM23.48 5.608C23.032 6.44 22.712 7.08 22.52 7.528L4.568 5.608H23.48ZM21.032 28.696C21.448 29.432 21.928 30.024 22.472 30.472L5.864 28.696H21.032ZM28.04 1C27.112 1.576 26.392 2.104 25.88 2.584L11.192 1H28.04ZM32.264 31.72C28.232 31.72 25.336 30.936 23.576 29.368C21.848 27.8 20.984 25.384 20.984 22.12C20.984 20.744 21.208 18.712 21.656 16.024C22.616 10.52 24.264 6.52 26.6 4.024C28.968 1.528 32.696 0.279998 37.784 0.279998C38.968 0.279998 40.312 0.407998 41.816 0.663999C43.352 0.888 44.472 1.176 45.176 1.528L42.488 8.872C40.6 8.424 38.824 8.2 37.16 8.2C35.528 8.2 34.36 8.36 33.656 8.68C32.952 9 32.52 9.64 32.36 10.6L30.152 23.176C31.304 23.432 32.488 23.56 33.704 23.56C36.296 23.56 38.664 23.176 40.808 22.408L40.04 30.472C37.992 31.304 35.4 31.72 32.264 31.72ZM76.5496 29.56C72.6456 31 68.7256 31.72 64.7896 31.72C60.8536 31.72 58.0056 30.936 56.2456 29.368C54.5176 27.8 53.6536 25.384 53.6536 22.12C53.6536 20.744 53.8776 18.712 54.3256 16.024C55.2856 10.456 56.9816 6.44 59.4136 3.976C61.8456 1.512 65.8776 0.279998 71.5096 0.279998C72.7256 0.279998 74.2456 0.407998 76.0696 0.663999C77.8936 0.919999 79.2376 1.208 80.1016 1.528L77.4616 8.872C75.0616 8.424 72.8536 8.2 70.8376 8.2C68.8536 8.2 67.4296 8.36 66.5656 8.68C65.7016 9 65.1896 9.64 65.0296 10.6L62.6776 24.184H65.7016C66.7896 24.184 67.5896 24.072 68.1016 23.848C68.6456 23.592 68.9976 23.032 69.1576 22.168L69.3976 20.872H67.0936L68.3896 13.528H79.3816L76.5496 29.56ZM52.9816 15.784C52.9176 16.04 52.8536 16.392 52.7896 16.84L33.9256 14.824H53.1256L52.9816 15.784ZM52.4536 19.432C52.3576 20.168 52.3096 20.84 52.3096 21.448L33.3976 19.432H52.4536ZM54.2776 10.216L53.7016 12.184L35.0776 10.216H54.2776ZM52.3576 24.04C52.4856 24.936 52.5976 25.608 52.6936 26.056L34.0216 24.04H52.3576ZM56.2456 5.608C55.7976 6.44 55.4776 7.08 55.2856 7.528L37.3336 5.608H56.2456ZM53.7976 28.696C54.2136 29.432 54.6936 30.024 55.2376 30.472L38.6296 28.696H53.7976ZM60.8056 1C59.8776 1.576 59.1576 2.104 58.6456 2.584L43.9576 1H60.8056ZM113.347 29.56C109.443 31 105.523 31.72 101.587 31.72C97.6505 31.72 94.8025 30.936 93.0425 29.368C91.3145 27.8 90.4505 25.384 90.4505 22.12C90.4505 20.744 90.6745 18.712 91.1225 16.024C92.0825 10.456 93.7785 6.44 96.2105 3.976C98.6425 1.512 102.675 0.279998 108.307 0.279998C109.523 0.279998 111.043 0.407998 112.867 0.663999C114.691 0.919999 116.035 1.208 116.899 1.528L114.259 8.872C111.859 8.424 109.651 8.2 107.635 8.2C105.651 8.2 104.227 8.36 103.363 8.68C102.499 9 101.987 9.64 101.827 10.6L99.4745 24.184H102.499C103.587 24.184 104.387 24.072 104.899 23.848C105.443 23.592 105.795 23.032 105.955 22.168L106.195 20.872H103.891L105.187 13.528H116.179L113.347 29.56ZM89.7785 15.784C89.7145 16.04 89.6505 16.392 89.5865 16.84L70.7225 14.824H89.9225L89.7785 15.784ZM89.2505 19.432C89.1545 20.168 89.1065 20.84 89.1065 21.448L70.1945 19.432H89.2505ZM91.0745 10.216L90.4985 12.184L71.8745 10.216H91.0745ZM89.1545 24.04C89.2825 24.936 89.3945 25.608 89.4905 26.056L70.8185 24.04H89.1545ZM93.0425 5.608C92.5945 6.44 92.2745 7.08 92.0825 7.528L74.1305 5.608H93.0425ZM90.5945 28.696C91.0105 29.432 91.4905 30.024 92.0345 30.472L75.4265 28.696H90.5945ZM97.6025 1C96.6745 1.576 95.9545 2.104 95.4425 2.584L80.7545 1H97.6025Z" fill="white"/>
</svg>
